# Exported from Wings 3D 1.5.2
mtllib TrolleyFill.mtl
o Frame_extract6
#24 vertices, 44 faces
v -0.25111522 0.25661237 -0.40674304
v -0.24953299 0.13730470 0.40433375
v 0.24953299 0.13730470 0.40433375
v 0.25111522 0.25661237 -0.40674304
v -0.25111522 0.13973955 0.38733940
v 0.25111522 0.13973955 0.38733940
v 0.23645166 0.13695810 0.40674304
v -0.23645166 0.13695810 0.40674304
v 0.24478627 0.13695810 0.40674304
v 0.25111522 0.13834447 0.39710587
v -0.25111522 0.13834447 0.39710587
v -0.24478627 0.13695810 0.40674304
v -0.25111522 -0.17083217 0.39480846
v -0.24953299 -0.17027682 0.40191164
v -0.24478627 -0.17009171 0.40427936
v -0.23645166 -0.17009171 0.40427936
v 0.23645166 -0.17009171 0.40427936
v 0.24478627 -0.17009171 0.40427936
v 0.24953299 -0.17027682 0.40191164
v 0.25111522 -0.17083217 0.39480846
v 0.25111522 -0.17158262 0.38520974
v 0.25111522 -0.22276326 -0.32360614
v -0.25111522 -0.22276326 -0.32360614
v -0.25111522 -0.17158262 0.38520974
vt 0.0000000e+0 0.20137100
vt 0.0000000e+0 0.20137100
vt 0.0000000e+0 0.72791272
vt 8.3266727e-17 1.00000000
vt 1.3494989e-3 2.9359391e-2
vt 1.3494994e-3 2.9359391e-2
vt 4.1377416e-3 0.20195312
vt 4.1377417e-3 0.20195312
vt 5.4192766e-3 2.9049470e-2
vt 5.4192771e-3 2.9049469e-2
vt 9.5995427e-3 0.20273320
vt 9.5995428e-3 0.20273320
vt 1.0787247e-2 2.8629688e-2
vt 1.0787247e-2 2.8629687e-2
vt 0.19802497 0.30663382
vt 0.19802497 0.30124946
vt 0.19802497 0.70406320
vt 0.19890982 0.29726497
vt 0.20156437 0.29593680
vt 0.20622541 0.29593680
vt 0.28086684 0.72791272
vt 0.28086684 1.00000000
vt 0.40718417 0.0000000e+0
vt 0.40718417 0.0000000e+0
vt 0.45368262 0.26808466
vt 0.45368262 0.26808466
vt 0.47069132 0.29593680
vt 0.47535235 0.29593680
vt 0.47800690 0.29726497
vt 0.47889175 0.70406320
vt 0.47889175 0.30124946
vt 0.47889175 0.30663382
vt 0.50118052 0.72991403
vt 0.50118052 0.27553093
vt 0.50118052 0.28104816
vt 0.50206537 0.27144721
vt 0.50471992 0.27008597
vt 0.50938096 0.27008597
vt 0.72012808 0.99983826
vt 0.72031809 0.82790228
vt 0.72310448 0.99965842
vt 0.72328065 0.82801722
vt 0.72777038 0.99966732
vt 0.72793242 0.82802070
vt 0.77384691 0.27008597
vt 0.77850794 0.27008597
vt 0.78116249 0.27144721
vt 0.78204734 0.72991403
vt 0.78204734 0.28104816
vt 0.78204734 0.27553094
vt 0.99228608 0.82802403
vt 0.99234858 0.99981684
vt 0.99694225 0.82801783
vt 0.99701882 0.99981607
vt 0.99990967 0.82790228
vt 1.00000000 1.00000000
vn -0.71842584 0.23262212 -0.65555416
vn -0.50882775 0.70382114 0.49571173
vn 0.74517022 0.25403565 0.61659324
vn 0.45883630 0.82948750 -0.31846465
vn -0.31553302 0.93915722 0.13573001
vn 0.70704906 0.69992704 0.10091464
vn -1.2406104e-4 0.55302709 0.83316326
vn 5.6752624e-15 0.77279619 0.63465428
vn 0.15270766 0.66220585 0.73359647
vn 0.54552151 0.81927651 0.17661335
vn -0.96070794 0.24006647 0.13931381
vn -0.19533239 0.42367185 0.88450405
vn -0.69749039 -0.70436713 0.13181085
vn -0.75073383 -0.26702717 0.60423109
vn -0.12023713 -0.81017597 0.57372287
vn 6.2543032e-15 -0.58109718 0.81383418
vn -5.9585728e-15 -0.80273656 0.59633381
vn 0.21939183 -0.25063927 0.94289299
vn 0.39700032 -0.83734498 0.37582460
vn 0.96197555 -0.24341846 0.12389714
vn 0.37139158 -0.92573699 7.1269342e-2
vn 0.55910892 -0.65319581 -0.51061968
vn -0.55910892 -0.65319581 -0.51061968
vn -0.62469666 -0.77863437 5.9013546e-2
g Frame_extract6_TrolleyFill
usemtl TrolleyFill
s 1
f 1/33/1 5/35/5 4/48/4
f 1/26/1 24/13/24 5/11/5
f 2/36/2 5/35/5 11/34/11
f 2/39/2 14/40/14 12/41/12
f 3/47/3 10/50/10 9/46/9
f 3/1/3 20/10/20 10/8/10
f 4/48/4 5/35/5 6/49/6
f 4/4/4 22/3/22 1/22/1
f 5/11/5 24/13/24 11/7/11
f 6/49/6 5/35/5 8/38/8
f 6/49/6 7/45/7 10/50/10
f 6/12/6 22/24/22 4/25/4
f 7/45/7 6/49/6 8/38/8
f 7/52/7 18/53/18 9/54/9
f 8/38/8 5/35/5 12/37/12
f 8/43/8 16/44/16 7/52/7
f 9/46/9 10/50/10 7/45/7
f 9/54/9 18/53/18 3/56/3
f 10/8/10 20/10/20 6/12/6
f 11/7/11 14/5/14 2/2/2
f 12/37/12 5/35/5 2/36/2
f 12/41/12 16/44/16 8/43/8
f 13/9/13 11/7/11 24/13/24
f 13/31/13 15/28/15 14/29/14
f 14/5/14 11/7/11 13/9/13
f 15/42/15 12/41/12 14/40/14
f 15/28/15 24/32/24 16/27/16
f 16/44/16 12/41/12 15/42/15
f 16/27/16 21/15/21 17/20/17
f 17/51/17 7/52/7 16/44/16
f 17/20/17 19/18/19 18/19/18
f 17/20/17 21/15/21 19/18/19
f 18/53/18 7/52/7 17/51/17
f 19/55/19 3/56/3 18/53/18
f 19/18/19 21/15/21 20/16/20
f 20/10/20 3/1/3 19/6/19
f 21/14/21 6/12/6 20/10/20
f 21/15/21 16/27/16 24/32/24
f 21/15/21 24/32/24 22/17/22
f 22/24/22 6/12/6 21/14/21
f 22/17/22 24/32/24 23/30/23
f 23/21/23 1/22/1 22/3/22
f 24/13/24 1/26/1 23/23/23
f 24/32/24 15/28/15 13/31/13
